<?xml version="1.0" encoding="iso-8859-1"?>
<!-- Uploaded to: SVG Repo, www.svgrepo.com, Generator: SVG Repo Mixer Tools -->
<svg version="1.1" id="Layer_1" xmlns="http://www.w3.org/2000/svg" xmlns:xlink="http://www.w3.org/1999/xlink" 
	 viewBox="0 0 512 512" xml:space="preserve">
<g>
	<g>
		<g>
			<path d="M405.333,298.667H106.667C47.759,298.667,0,346.426,0,405.333S47.759,512,106.667,512h298.667
				C464.241,512,512,464.241,512,405.333S464.241,298.667,405.333,298.667z M405.333,469.333H106.667c-35.343,0-64-28.657-64-64
				s28.657-64,64-64h298.667c35.343,0,64,28.657,64,64S440.677,469.333,405.333,469.333z"/>
			<path d="M170.667,277.335h170.667c11.782,0,21.333-9.551,21.333-21.333v-128c0-11.782-9.551-21.333-21.333-21.333V85.333
				C341.333,38.202,303.131,0,256,0s-85.333,38.202-85.333,85.333v21.336c-11.782,0-21.333,9.551-21.333,21.333v128
				C149.333,267.784,158.885,277.335,170.667,277.335z M213.333,85.333c0-23.567,19.099-42.667,42.667-42.667
				s42.667,19.099,42.667,42.667v21.333h-85.333V85.333z M320,234.669H192v-85.333h128V234.669z"/>
			<path d="M128,362.667c-11.782,0-21.333,9.551-21.333,21.333v42.667c0,11.782,9.551,21.333,21.333,21.333
				c11.782,0,21.333-9.551,21.333-21.333V384C149.333,372.218,139.782,362.667,128,362.667z"/>
			<path d="M213.333,362.667C201.551,362.667,192,372.218,192,384v42.667c0,11.782,9.551,21.333,21.333,21.333
				c11.782,0,21.333-9.551,21.333-21.333V384C234.667,372.218,225.115,362.667,213.333,362.667z"/>
			<path d="M298.667,362.667c-11.782,0-21.333,9.551-21.333,21.333v42.667c0,11.782,9.551,21.333,21.333,21.333
				c11.782,0,21.333-9.551,21.333-21.333V384C320,372.218,310.449,362.667,298.667,362.667z"/>
			<path d="M405.333,405.333h-42.667c-11.782,0-21.333,9.551-21.333,21.333S350.885,448,362.667,448h42.667
				c11.782,0,21.333-9.551,21.333-21.333S417.115,405.333,405.333,405.333z"/>
		</g>
	</g>
</g>
</svg>